#define rtall_width 12
#define rtall_height 12
static char rtall_bits[] = {
  0xDF, 0x0F, 0xDF, 0x0F, 0xDF, 0x0F, 0xC0, 0x0F, 0xDF, 0x0F, 0xDF, 0x0F, 
  0xDF, 0x0F, 0xDF, 0x0F, 0xC0, 0x0F, 0xDF, 0x0F, 0xDF, 0x0F, 0xDF, 0x0F, 
  };
